# xmcd
#
# Track frame offsets: 
#        150
#        23710
#        44347
#        62256
#        79833
#        99470
#        116311
#        143768
#        168303
#        188113
#        205536
#        220964
#        233292
#        250864
#
# Disc length: 3532 seconds
#
# Revision: 0
# Processed by: cddbd v1.4PL0 Copyright (c) Steve Scherf et al.
# Submitted via: ExactAudioCopy v0.90b4
#
DISCID=a90dca0e
DTITLE=Brian Knight - Good Time Down the Road (+4 Bonus Tracks )
DYEAR=1900
DGENRE=Blues
TTITLE0=Hi-Heel Sneakers
TTITLE1=Hoochie Coochie Man
TTITLE2=99 Years
TTITLE3=My Babe
TTITLE4=Good Times Down The Road
TTITLE5=Meet Me At The Bottom
TTITLE6=Honey Bee
TTITLE7=She Caught The Katy
TTITLE8=Any Way You Want Me To Do
TTITLE9=Tired, Broke and Busted
TTITLE10=K.C. Moon (Live Bonus Track)
TTITLE11=Hard Travellin' (Live Bonus Track)
TTITLE12=Honey Bee (Live Bonus Track)
TTITLE13=Meet Me In The Bottom (Live Bonus Track)
EXTD=
EXTT0=
EXTT1=
EXTT2=
EXTT3=
EXTT4=
EXTT5=
EXTT6=
EXTT7=
EXTT8=
EXTT9=
EXTT10=
EXTT11=
EXTT12=
EXTT13=
PLAYORDER=
